<?xml version="1.0" encoding="UTF-8" standalone="no"?>
<svg
   width="117.8"
   height="71"
   viewBox="0 0 117.79999 71.000003"
   version="1.1"
   id="svg1"
   sodipodi:docname="tik.svg"
   inkscape:version="1.4 (e7c3feb100, 2024-10-09)"
   inkscape:export-filename="tik.png"
   inkscape:export-xdpi="96"
   inkscape:export-ydpi="96"
   xmlns:inkscape="http://www.inkscape.org/namespaces/inkscape"
   xmlns:sodipodi="http://sodipodi.sourceforge.net/DTD/sodipodi-0.dtd"
   xmlns="http://www.w3.org/2000/svg"
   xmlns:svg="http://www.w3.org/2000/svg">
  <defs
     id="defs1" />
  <sodipodi:namedview
     id="namedview1"
     pagecolor="#131313"
     bordercolor="#ffffff"
     borderopacity="1"
     inkscape:showpageshadow="0"
     inkscape:pageopacity="0"
     inkscape:pagecheckerboard="1"
     inkscape:deskcolor="#000000"
     inkscape:zoom="4.9991197"
     inkscape:cx="56.709985"
     inkscape:cy="28.605036"
     inkscape:window-width="1920"
     inkscape:window-height="1007"
     inkscape:window-x="0"
     inkscape:window-y="0"
     inkscape:window-maximized="1"
     inkscape:current-layer="svg1"
     inkscape:export-bgcolor="#000000ff" />
  <path
     d="M 33,69 32.1,56.8 c -2,0.6 -3.7,0.8 -4.9,0.8 -3,0 -4.6,-1.2 -4.6,-3.3 V 33.1 H 32 V 20 H 22.6 V 8 H 10.5 C 10.5,17.8 7.9,21 0,21 v 12.1 h 6.8 v 26.4 c 0,7 5.4,11.5 13.9,11.5 3.6,0 8.2,-0.8 12.3,-2 z"
     id="0"
     vector-effect="non-scaling-stroke"
     style="font-size:12px;fill:#ffffff;fill-rule:evenodd;stroke:none;stroke-width:0.25mm;stroke-linecap:round" />
  <path
     style="font-size:12px;fill:#ffffff;fill-rule:evenodd;stroke:none;stroke-width:0.25mm;stroke-linecap:round"
     d="m 41.872688,26.40398 c 0,5.2 3.7,9 8.9,9 5.2,0 9,-3.8 9,-9 0,-5.2 -3.8,-8.9 -9,-8.9 -5.2,0 -8.9,3.7 -8.9,8.9 z"
     id="path1" />
  <path
     style="font-size:12px;fill:#ffffff;fill-rule:evenodd;stroke:none;stroke-width:0.25mm;stroke-linecap:round"
     d="m 41.872688,61.276547 c 0,5.2 3.7,9 8.9,9 5.2,0 9,-3.8 9,-9 0,-5.2 -3.8,-8.9 -9,-8.9 -5.2,0 -8.9,3.7 -8.9,8.9 z"
     id="path1-5" />
  <path
     d="m 98.2,70 h 19.6 L 99.1,44.4 116.2,20 h -19 L 85.8,37.4 83.1,37.9 V 0 H 67.2 V 70 H 83.1 V 51 l 2.2,-0.4 z"
     id="2"
     vector-effect="non-scaling-stroke"
     style="font-size:12px;fill:#ffffff;fill-rule:evenodd;stroke:none;stroke-width:0.25mm;stroke-linecap:round" />
</svg>
